<svg width="28" height="28" viewBox="0 0 28 28" fill="none" xmlns="http://www.w3.org/2000/svg">
<path d="M16.7987 8.86621H11.1987V15.4498H9.33203L13.9987 20.5329L18.6654 15.4498H16.7987V8.86621ZM13.9987 13.5326C14.3286 13.5319 14.6482 13.6479 14.9008 13.8602C15.1533 14.0725 15.3226 14.3674 15.3785 14.6926C15.4344 15.0178 15.3734 15.3522 15.2063 15.6367C15.0392 15.9212 14.7767 16.1373 14.4655 16.2468L14.4654 16.7492H13.532L13.5321 16.2469C13.26 16.151 13.0241 15.9733 12.857 15.7381C12.6899 15.5028 12.5996 15.2217 12.5987 14.9331C12.5987 14.8093 12.6479 14.6906 12.7354 14.6031C12.8229 14.5156 12.9416 14.4664 13.0654 14.4664C13.1891 14.4664 13.3078 14.5156 13.3953 14.6031C13.4829 14.6906 13.532 14.8093 13.532 14.9331C13.5321 15.0254 13.5596 15.1156 13.6109 15.1922C13.6622 15.2689 13.7352 15.3287 13.8204 15.3639C13.9057 15.3992 13.9995 15.4083 14.09 15.3903C14.1805 15.3722 14.2636 15.3277 14.3288 15.2625C14.3941 15.1972 14.4385 15.114 14.4564 15.0235C14.4744 14.933 14.4651 14.8392 14.4298 14.7539C14.3945 14.6687 14.3346 14.5958 14.2579 14.5446C14.1812 14.4933 14.091 14.466 13.9987 14.466C13.6688 14.4668 13.3492 14.3508 13.0966 14.1385C12.8441 13.9263 12.6748 13.6314 12.6189 13.3062C12.563 12.9811 12.624 12.6466 12.7912 12.3622C12.9583 12.0777 13.2208 11.8616 13.532 11.7522V11.1995H14.4654V11.7523C14.7375 11.8482 14.9734 12.0259 15.1405 12.2612C15.3076 12.4964 15.3978 12.7776 15.3987 13.0662H14.4654C14.4654 12.9739 14.4381 12.8837 14.3868 12.8069C14.3356 12.7301 14.2627 12.6703 14.1774 12.6349C14.0922 12.5995 13.9983 12.5903 13.9078 12.6083C13.8173 12.6262 13.7341 12.6707 13.6688 12.7359C13.6035 12.8012 13.559 12.8843 13.541 12.9749C13.523 13.0654 13.5322 13.1592 13.5675 13.2445C13.6028 13.3298 13.6627 13.4027 13.7394 13.454C13.8162 13.5053 13.9064 13.5326 13.9987 13.5326Z" fill="white"/>
<path d="M25.6204 6.19113C24.6072 4.68695 23.313 3.39271 21.8088 2.37959L21.1623 3.0261C20.9546 3.22691 20.6881 3.35583 20.4017 3.39394C20.1154 3.43205 19.8244 3.37733 19.5714 3.23781C18.9608 2.92033 18.3241 2.65585 17.6682 2.44728C17.3913 2.36688 17.1474 2.19991 16.9723 1.97082C16.7972 1.74173 16.7001 1.46258 16.6952 1.17427V0.265151C14.9158 -0.0883835 13.0842 -0.0883835 11.3048 0.265151V1.17427C11.2999 1.46258 11.2028 1.74172 11.0277 1.97081C10.8526 2.1999 10.6087 2.36687 10.3318 2.44726C9.67592 2.65583 9.03918 2.92031 8.42857 3.2378C8.17563 3.37731 7.88461 3.43203 7.59827 3.39393C7.31193 3.35582 7.04535 3.22689 6.8377 3.02609L6.1912 2.37959C4.687 3.39271 3.39275 4.68695 2.37962 6.19113L3.0261 6.83765C3.22691 7.0453 3.35583 7.31188 3.39394 7.59823C3.43205 7.88457 3.37733 8.17559 3.23781 8.42854C2.92036 9.03916 2.65588 9.67588 2.44728 10.3317C2.36689 10.6086 2.19992 10.8525 1.97083 11.0276C1.74174 11.2027 1.46258 11.2999 1.17427 11.3048H0.265207C-0.0883834 13.0842 -0.0884024 14.9157 0.265151 16.6952H1.17427C1.46258 16.7001 1.74174 16.7972 1.97082 16.9723C2.19991 17.1474 2.36688 17.3913 2.44726 17.6682C2.65586 18.324 2.92034 18.9608 3.2378 19.5714C3.37731 19.8243 3.43204 20.1153 3.39393 20.4017C3.35582 20.688 3.2269 20.9546 3.02609 21.1623L2.37962 21.8088C3.39269 23.313 4.68693 24.6073 6.19113 25.6204L6.8377 24.9739C7.04536 24.7731 7.31193 24.6441 7.59827 24.606C7.88461 24.5679 8.17562 24.6226 8.42857 24.7621C9.03918 25.0796 9.67592 25.3441 10.3318 25.5527C10.6087 25.6331 10.8526 25.8 11.0277 26.0291C11.2028 26.2582 11.2999 26.5374 11.3048 26.8257V27.7348C13.0842 28.0884 14.9158 28.0884 16.6952 27.7348V26.8257C16.7001 26.5374 16.7972 26.2582 16.9723 26.0291C17.1474 25.8 17.3913 25.6331 17.6682 25.5527C18.3241 25.3441 18.9608 25.0796 19.5714 24.7621C19.8244 24.6226 20.1154 24.5679 20.4017 24.606C20.6881 24.6441 20.9546 24.7731 21.1623 24.9739L21.8089 25.6204C23.3131 24.6073 24.6073 23.313 25.6204 21.8088L24.9739 21.1623C24.7731 20.9546 24.6442 20.688 24.6061 20.4017C24.5679 20.1153 24.6227 19.8243 24.7622 19.5714C25.0796 18.9608 25.3441 18.324 25.5527 17.6682C25.6331 17.3913 25.8001 17.1474 26.0292 16.9723C26.2582 16.7972 26.5374 16.7001 26.8257 16.6952H27.7348C28.0884 14.9157 28.0884 13.0842 27.7348 11.3048H26.8257C26.5374 11.2999 26.2582 11.2027 26.0292 11.0276C25.8001 10.8525 25.6331 10.6086 25.5527 10.3317C25.3441 9.67588 25.0796 9.03916 24.7622 8.42854C24.6227 8.17559 24.5679 7.88457 24.6061 7.59823C24.6442 7.31188 24.7731 7.0453 24.9739 6.83765L25.6204 6.19113ZM14 23.3333C12.154 23.3333 10.3495 22.7859 8.81468 21.7604C7.27982 20.7348 6.08354 19.2772 5.37712 17.5717C4.67071 15.8663 4.48587 13.9896 4.846 12.1792C5.20613 10.3687 6.09505 8.70563 7.40034 7.40034C8.70563 6.09505 10.3687 5.20613 12.1792 4.846C13.9896 4.48587 15.8663 4.67071 17.5717 5.37712C19.2772 6.08354 20.7348 7.27982 21.7604 8.81468C22.7859 10.3495 23.3333 12.154 23.3333 14C23.3333 16.4754 22.35 18.8493 20.5997 20.5997C18.8493 22.35 16.4754 23.3333 14 23.3333Z" fill="white"/>
</svg>
