<svg width="28" height="28" viewBox="0 0 28 28" fill="none" xmlns="http://www.w3.org/2000/svg">
<path d="M0.145345 9.22779L1.89809 10.5973L0.248423 13.7575C-0.576387 15.2147 0.840586 16.6342 1.7434 17.1284C2.63217 17.6148 4.01163 17.6727 5.30041 17.6551L7.6202 13.8628L9.37295 14.8109L6.33142 9.17518L0.145345 9.22779ZM0.403064 16.9638L4.16627 23.9163C4.92236 24.8818 6.34863 25.1101 7.8264 25.075H11.7958V18.4912L4.2694 18.4386C3.10095 18.5087 1.57156 18.2629 0.403064 16.9638ZM24.0794 4.1511L22.0319 5.02015L20.0676 2.04529C19.193 0.617424 17.2644 1.1685 16.3946 1.71857C15.5383 2.26009 14.8189 3.43856 14.2094 4.57425L16.4016 8.44173L14.7226 9.51507L21.1263 9.58717L24.0794 4.1511ZM17.1884 0.626117L9.28314 0.546875C8.07204 0.739993 7.18094 1.87674 6.49521 3.18633L4.57081 6.65806L10.3292 9.84997L14.0241 3.29271C14.5292 2.23662 15.4856 1.01821 17.1884 0.626117ZM17.5322 27.453L17.7648 25.2409L21.319 24.9653C22.9918 24.8925 23.4448 22.9386 23.3854 21.9111C23.327 20.8996 22.645 19.6991 21.9471 18.6155L17.5018 18.6578L17.377 16.669L14.2094 22.2348L17.5322 27.453ZM23.9561 23.1351L27.8579 16.2594C28.2762 15.1066 27.714 13.7761 26.901 12.5414L24.7976 9.17513L19.2142 12.664L23.1579 19.0747C23.8367 20.0284 24.4387 21.4556 23.9561 23.1351Z" fill="#006FF9"/>
</svg>
