<svg width="26" height="28" viewBox="0 0 26 28" fill="none" xmlns="http://www.w3.org/2000/svg">
<path d="M24.1389 14.6731C24.8298 14.6656 25.3835 14.0286 25.375 13.2497L25.3592 11.8417C25.3502 11.0682 24.7901 10.4465 24.1048 10.4464C24.1003 10.4464 24.096 10.4465 24.0917 10.4465L22.2962 10.4664C22.0311 9.3124 21.5629 8.23787 20.9327 7.27847L22.1888 5.99417C22.6731 5.50027 22.6132 4.65882 22.0563 4.11365L21.0493 3.12927C20.7536 2.83991 20.3772 2.69282 20.0169 2.69282C19.6988 2.69282 19.3935 2.80723 19.1668 3.03954L17.9112 4.32322C16.9381 3.71524 15.8533 3.27026 14.6936 3.03121L14.6735 1.23655C14.6656 0.549764 14.0384 0 13.267 0C13.261 0 13.2552 0 13.2493 0.000109375L11.8415 0.0159032C11.0639 0.0240407 10.439 0.591633 10.4463 1.28356L10.467 3.07841C9.3126 3.34354 8.23786 3.81202 7.27826 4.44219L5.99417 3.18674C5.77009 2.96659 5.47398 2.85881 5.16679 2.85881C4.79724 2.85881 4.41143 3.01456 4.11386 3.31832L3.12948 4.32514C2.58538 4.88226 2.54436 5.72501 3.03975 6.20824L4.32384 7.46413C3.71545 8.43696 3.27068 9.52174 3.03141 10.6813L1.23654 10.7014C0.544829 10.7091 -0.00845768 11.3463 9.78994e-05 12.125L0.0159111 13.5332C0.0244424 14.3071 0.58521 14.9283 1.27073 14.9283C1.275 14.9283 1.27907 14.9283 1.28333 14.9283L3.07862 14.9085C3.34394 16.0625 3.81264 17.1368 4.4424 18.096L3.18714 19.3805C2.70202 19.8746 2.76246 20.7161 3.31874 21.2608L4.32491 22.2458C4.62121 22.5351 4.99761 22.6818 5.358 22.6818C5.67609 22.6818 5.98157 22.5675 6.20822 22.3357L7.46411 21.0512C8.43696 21.6601 9.52173 22.104 10.6819 22.3439L10.7016 24.1381C10.7095 24.8253 11.3367 25.375 12.1072 25.375C12.1132 25.375 12.119 25.375 12.1249 25.375L13.533 25.3588C14.1631 25.3519 14.6925 24.9791 14.8673 24.4701L13.2082 20.7722C13.0777 20.48 13.0472 20.1423 13.1204 19.8242C12.1606 19.8806 11.2002 19.7453 10.2872 19.4234C6.55665 18.1077 4.57293 14.0493 5.86472 10.3767C6.85207 7.57007 9.54139 5.68441 12.5567 5.68441C13.3791 5.68441 14.1933 5.82457 14.9762 6.10076C18.7074 7.4167 20.6913 11.4753 19.3991 15.1479C19.0229 16.2182 18.4042 17.1601 17.5837 17.9219C17.8456 18.0801 18.0599 18.3177 18.1899 18.6106L19.9256 22.4802C20.0179 22.5015 20.1121 22.5161 20.2085 22.5161C20.5778 22.5161 20.9634 22.3603 21.2608 22.0563L22.2452 21.0502C22.7901 20.4928 22.8303 19.6503 22.3358 19.1669L21.0512 17.9107C21.6601 16.9379 22.104 15.8534 22.3437 14.6936L24.1389 14.6731Z" fill="white"/>
<path d="M18.2715 28C18.4602 28 18.645 27.9627 18.8208 27.8887L19.7276 27.5074C20.0692 27.3645 20.3409 27.0919 20.4732 26.7593C20.5975 26.4461 20.5919 26.1067 20.4567 25.8027L17.3899 18.9659C17.2865 18.7333 17.0605 18.582 16.8131 18.5796L16.426 17.7435C17.4252 17.0131 18.1639 16.0224 18.5732 14.8577C19.7054 11.6398 17.9612 8.08164 14.6846 6.92593C13.9954 6.68284 13.2794 6.55957 12.5565 6.55957C9.9118 6.55957 7.55404 8.21013 6.68972 10.6669C5.55794 13.8848 7.30195 17.443 10.5777 18.5982C11.602 18.9597 12.6987 19.0528 13.7643 18.8708L14.1518 19.7059C14.0858 19.7689 14.0339 19.846 13.9997 19.9334C13.9369 20.0934 13.941 20.2681 14.0115 20.426L17.0708 27.2449C17.2739 27.7035 17.7452 28 18.2713 28C18.2713 28 18.2713 28 18.2715 28ZM14.036 9.87885C13.9555 10.1067 13.7064 10.2262 13.4778 10.1459C12.7919 9.90342 12.0519 9.94327 11.3948 10.2579C10.7368 10.573 10.241 11.126 9.99876 11.8147C9.49865 13.2362 10.2463 14.7996 11.6654 15.3001C11.8934 15.3804 12.013 15.6301 11.9325 15.8581C11.8692 16.0377 11.7003 16.1503 11.52 16.1503C11.4717 16.1503 11.4226 16.1422 11.3745 16.1251C9.50057 15.4646 8.5132 13.4006 9.1733 11.5244C9.49309 10.615 10.1479 9.88495 11.0167 9.4688C11.8846 9.05289 12.8622 9.00055 13.7692 9.32067C13.9969 9.4011 14.1166 9.65102 14.036 9.87885ZM14.7305 11.053C14.5199 10.9787 14.4097 10.7476 14.484 10.5369C14.5579 10.3259 14.7886 10.2152 14.9992 10.2896C15.2095 10.3639 15.3201 10.5948 15.246 10.8057C15.1719 11.0163 14.9411 11.127 14.7305 11.053ZM17.8702 26.8888L14.9862 20.461L16.7798 19.7435L19.6577 26.1594C19.7067 26.2697 19.6859 26.3707 19.6599 26.4363C19.6142 26.5513 19.5159 26.6474 19.3892 26.7004L18.4815 27.0821C18.4138 27.1107 18.3431 27.125 18.2715 27.125C18.2713 27.125 18.2713 27.125 18.2713 27.125C18.0912 27.125 17.934 27.033 17.8702 26.8888Z" fill="white"/>
</svg>
